<svg xmlns="http://www.w3.org/2000/svg" xmlns:xlink="http://www.w3.org/1999/xlink" width="16" height="16"><defs><path id="a" d="M639 9784.01a8.02 8.02 0 0 1-6.39 7.84 7.96 7.96 0 0 1-8.24-3.36 7.96 7.96 0 0 1 0-8.95 8.01 8.01 0 0 1 14.63 4.47zm-2.72-4.33c-.02.01-1.11 1.6-3.81 2.7a21.2 21.2 0 0 1 .6 1.34c2.35-.3 4.66.2 4.76.23a6.8 6.8 0 0 0-1.55-4.27zm-5.28-2.5c-.56 0-1.1.07-1.61.2.1.13 1.39 1.84 2.55 3.98 2.58-.96 3.56-2.45 3.57-2.47a6.8 6.8 0 0 0-4.51-1.7zm-1.66.2zm-5.03 5.23c.18 0 3.03.03 6.31-.84a41.14 41.14 0 0 0-2.54-3.93 6.84 6.84 0 0 0-3.77 4.77zm1.6 5.97s1.88-3.32 5.56-4.51l.27-.08c-.17-.4-.36-.78-.55-1.16-3.52 1.05-6.9.97-7.02.97v.21c0 1.76.66 3.36 1.75 4.57zm7.76 1.73c-.1-.6-.5-2.7-1.46-5.2l-.05.02c-4.05 1.41-5.36 4.27-5.36 4.27l-.15-.12a6.8 6.8 0 0 0 7.02 1.03zm4.08-5.21a9.9 9.9 0 0 0-4.26-.3c.9 2.46 1.26 4.47 1.33 4.88a6.84 6.84 0 0 0 2.93-4.58z"/></defs><use fill="#95e1d3" xlink:href="#a" transform="translate(-623 -9776)"/></svg>