<svg xmlns="http://www.w3.org/2000/svg" xmlns:xlink="http://www.w3.org/1999/xlink" width="16" height="14"><defs><path id="a" d="M576.5 9780.72v2.44h-1v-2.44H573v-1h2.5v-2.44h1v2.44h2.5v1zm-6.91-2.47c.88.49 1.4 1.28 1.4 2.33 0 .87-.54 1.56-1.24 2.1-.68.52-.8.74-.8 1.18 0 .38.72 1.03 1.1 1.3 1.12.77 1.45 1.49 1.45 2.69 0 1.5-1.45 3.17-4.12 3.17-2.34 0-4.38-1.12-4.38-2.62 0-1.52 1.87-2.99 4.2-2.99h.74c-.32-.32-.57-.7-.57-1.16 0-.27.09-.55.21-.79h-.4c-1.92 0-3.2-1.4-3.2-3.06 0-1.64 1.78-3.14 3.67-3.14h4.22l-.95.99zm-1.93 7.55c-1.62-.02-3.08.97-3.08 2.15 0 1.21 1.17 2.1 2.8 2.1 2.27 0 3.07-.82 3.07-2.03 0-.15-.02-.3-.06-.43-.17-.69-.8-1.02-1.68-1.62a3.6 3.6 0 0 0-1.05-.17zm1.82-5.2c-.2-1.4-1.27-2.53-2.36-2.56-1.09-.03-1.82 1.04-1.63 2.44.19 1.4 1.22 2.57 2.31 2.6 1.09.03 1.86-1.08 1.68-2.48z"/></defs><use fill="#95e1d3" xlink:href="#a" transform="translate(-563 -9777)"/></svg>