<svg xmlns="http://www.w3.org/2000/svg" xmlns:xlink="http://www.w3.org/1999/xlink" width="16" height="16"><defs><path id="a" d="M517 9792.01h-12a2 2 0 0 1-2-2v-12c0-1.1.9-2 2-2h12a2 2 0 0 1 2 2v12a2 2 0 0 1-2 2zm-6-11.1a3.1 3.1 0 0 0-2.81 1.8l-.02.04-.08.2-.03.1-.06.21-.03.1-.04.23-.01.1-.02.32a3.1 3.1 0 1 0 6.18-.33l-.01-.09a3.18 3.18 0 0 0-.04-.23l-.03-.1a3.17 3.17 0 0 0-.06-.21c0-.04-.02-.07-.03-.1a2.97 2.97 0 0 0-.08-.2l-.02-.04a3.1 3.1 0 0 0-2.81-1.8zm6.2-2.3a.8.8 0 0 0-.8-.8h-1.6a.8.8 0 0 0-.8.8v1.6c0 .45.36.8.8.8h1.6a.8.8 0 0 0 .8-.8zm0 4.1h-1.47a4.9 4.9 0 1 1-9.46 0h-1.47v6.7c0 .45.36.8.8.8h10.8a.8.8 0 0 0 .8-.8z"/></defs><use fill="#95e1d3" xlink:href="#a" transform="translate(-503 -9776)"/></svg>