<svg xmlns="http://www.w3.org/2000/svg" xmlns:xlink="http://www.w3.org/1999/xlink" width="30" height="30"><defs><path id="a" d="M735 6994c0 .65-.42 1.2-1 1.4v1.7a1.5 1.5 0 1 1-1.9 1.9h-1.7a1.5 1.5 0 0 1-2.8 0h-1.7a1.5 1.5 0 0 1-2.8 0h-1.7a1.5 1.5 0 0 1-2.8 0h-1.7a1.5 1.5 0 0 1-2.8 0h-1.7a1.5 1.5 0 0 1-2.8 0h-1.7a1.5 1.5 0 1 1-1.9-1.9v-1.7a1.5 1.5 0 0 1 0-2.8v-1.7a1.5 1.5 0 0 1 0-2.8v-1.7a1.5 1.5 0 0 1 0-2.8v-1.7a1.5 1.5 0 0 1 0-2.8v-1.7a1.5 1.5 0 0 1 0-2.8v-1.7a1.5 1.5 0 1 1 1.9-1.9h1.7a1.5 1.5 0 0 1 2.8 0h1.7a1.5 1.5 0 0 1 2.8 0h1.7a1.5 1.5 0 0 1 2.8 0h1.7a1.5 1.5 0 0 1 2.8 0h1.7a1.5 1.5 0 0 1 2.8 0h1.7a1.5 1.5 0 1 1 1.9 1.9v1.7a1.5 1.5 0 0 1 0 2.8v1.7a1.5 1.5 0 0 1 0 2.8v1.7a1.5 1.5 0 0 1 0 2.8v1.7a1.5 1.5 0 0 1 0 2.8v1.7c.58.2 1 .75 1 1.4zm-4-20h-22v22h22zm-13 16l7-8.5 4.5 7v6h-19l6-6zm-3-7a3 3 0 1 1 0-6 3 3 0 0 1 0 6z"/></defs><use fill="#fff" xlink:href="#a" transform="translate(-705 -6970)"/></svg>