<svg xmlns="http://www.w3.org/2000/svg" xmlns:xlink="http://www.w3.org/1999/xlink" width="13" height="16"><defs><path id="a" d="M539.84 9786.42l-.4 1.6c-.13.53-.25 1.06-.44 1.55a7.9 7.9 0 0 1-1.28 2.2c-.36.42-.28.25-.4.23-.07-.02-.08-.1-.1-.22-.09-.64-.03-1.37 0-2.09.04-.81.22-1.49.38-2.17l.9-3.85c.01-.08.07-.23.05-.28a4.01 4.01 0 0 1-.27-1.06c-.04-.43-.01-.84.09-1.21.17-.66.57-1.25 1.18-1.46.4-.14.82-.08 1.09.08.27.16.45.41.54.78.09.38.02.84-.05 1.18-.17.76-.39 1.33-.59 2.07-.1.36-.2.74-.12 1.13.09.36.28.61.53.8.27.19.58.3 1.02.28.77-.03 1.3-.52 1.66-.98a5.8 5.8 0 0 0 1.04-2.93c.04-.38.08-.82.05-1.26-.06-.8-.31-1.44-.7-1.95a3.3 3.3 0 0 0-1.58-1.06 5.2 5.2 0 0 0-2.34-.15 4.15 4.15 0 0 0-3.07 2.2c-.32.6-.53 1.29-.53 2.14 0 .66.17 1.17.43 1.56.08.13.2.23.29.38.11.2-.02.5-.08.72-.07.27-.08.64-.39.64-.12 0-.29-.09-.4-.15-.81-.45-1.3-1.27-1.5-2.33a5.59 5.59 0 0 1 2.74-5.87c.7-.41 1.48-.7 2.44-.84.32-.05.65-.06 1-.08a6.03 6.03 0 0 1 2.7.5c.76.34 1.36.79 1.87 1.35.52.57.9 1.23 1.15 2.06.12.44.25.9.25 1.43 0 .54-.12 1.01-.2 1.48a5.83 5.83 0 0 1-2.4 4.04 4.14 4.14 0 0 1-2.5.68c-.49-.03-.9-.17-1.23-.36-.34-.19-.62-.42-.83-.78z"/></defs><use fill="#95e1d3" xlink:href="#a" transform="translate(-534 -9776)"/></svg>