<svg xmlns="http://www.w3.org/2000/svg" xmlns:xlink="http://www.w3.org/1999/xlink" width="16" height="15"><defs><path id="a" d="M1257.42 9121.36c-.58 0-1.14-.17-1.68-.25-2.2 2.78-5.65 2.23-5.65 2.23 2.44-1.15 2.4-3.07 1.96-3.32-1.92-1.13-3.07-2.84-3.07-4.76 0-3.4 3.73-6.14 8.44-6.14 4.7 0 7.57 2.74 7.57 6.14 0 3.39-2.87 6.1-7.57 6.1zm-4.18-7.48a1.5 1.5 0 1 0 0 3 1.5 1.5 0 0 0 0-3zm3.75 0a1.5 1.5 0 1 0 0 3 1.5 1.5 0 0 0 0-3zm3.75 0a1.5 1.5 0 1 0 0 3 1.5 1.5 0 0 0 0-3z"/></defs><use fill="#95e1d3" xlink:href="#a" transform="translate(-1249 -9109)"/></svg>