<svg xmlns="http://www.w3.org/2000/svg" xmlns:xlink="http://www.w3.org/1999/xlink" width="10" height="16"><defs><path id="a" d="M666 9791.15a7.8 7.8 0 0 1-3.64.87 4.87 4.87 0 0 1-3.14-1.07c-.4-.34-.67-.7-.82-1.09a4.76 4.76 0 0 1-.23-1.68v-5.61h-2.16v-2.27c.62-.2 1.35-.5 1.8-.88.44-.38.8-.84 1.07-1.37a6.2 6.2 0 0 0 .56-2.04h2.26v3.7h3.68v2.86h-3.68v4.1c0 .93-.01 1.47.09 1.73.1.26.34.53.6.7.36.2.76.31 1.21.31.8 0 1.61-.26 2.4-.79z"/></defs><use fill="#95e1d3" xlink:href="#a" transform="translate(-656 -9776)"/></svg>