<svg xmlns="http://www.w3.org/2000/svg" xmlns:xlink="http://www.w3.org/1999/xlink" width="16" height="14"><defs><path id="a" d="M483.88 9777.52a3.38 3.38 0 0 1 2.6 1.03 5.32 5.32 0 0 0 1.68-.57l.4-.22a3.28 3.28 0 0 1-1.06 1.54c-.1.08-.22.2-.36.25.71 0 1.3-.32 1.86-.5v.01c-.3.47-.69.94-1.11 1.28l-.52.4a9.4 9.4 0 0 1-.15 2.12c-.82 3.68-2.99 6.18-6.43 7.25a9.82 9.82 0 0 1-4.64.2c-.7-.18-1.34-.37-1.93-.63a7.68 7.68 0 0 1-1.22-.66c.32.01.7.1 1.05.04.32-.05.64-.04.94-.1a6.7 6.7 0 0 0 1.97-.71c.27-.16.69-.35.88-.59a3.3 3.3 0 0 1-3.06-2.28c.33.04 1.25.13 1.47-.06a2.4 2.4 0 0 1-1.07-.43 3.16 3.16 0 0 1-1.55-2.8l.34.15c.21.1.43.14.69.2.1.02.32.08.45.03h-.02c-.17-.19-.43-.32-.6-.52a3.36 3.36 0 0 1-.74-2.98 3.82 3.82 0 0 1 .37-.85c.06.14.2.23.3.35a9.67 9.67 0 0 0 6.46 3.07c-.15-.44-.1-1.13.02-1.55a3.24 3.24 0 0 1 2.58-2.43l.4-.04z"/></defs><use fill="#95e1d3" xlink:href="#a" transform="translate(-473 -9777)"/></svg>